<?xml version="1.0" encoding="UTF-8"?>
<svg width="186.65mm" height="186.65mm" version="1.1" viewBox="0 0 186.65 186.65" xmlns="http://www.w3.org/2000/svg" xmlns:cc="http://creativecommons.org/ns#" xmlns:dc="http://purl.org/dc/elements/1.1/" xmlns:osb="http://www.openswatchbook.org/uri/2009/osb" xmlns:rdf="http://www.w3.org/1999/02/22-rdf-syntax-ns#" xmlns:xlink="http://www.w3.org/1999/xlink"><defs><pattern id="Polkadots-small" width="10" height="10" patternTransform="translate(0) scale(10)" patternUnits="userSpaceOnUse"><circle cx="2.567" cy=".81" r=".05"/><circle cx="3.048" cy="2.33" r=".05"/><circle cx="4.418" cy="2.415" r=".05"/><circle cx="1.844" cy="3.029" r=".05"/><circle cx="6.08" cy="1.363" r=".05"/><circle cx="5.819" cy="4.413" r=".05"/><circle cx="4.305" cy="4.048" r=".05"/><circle cx="5.541" cy="3.045" r=".05"/><circle cx="4.785" cy="5.527" r=".05"/><circle cx="2.667" cy="5.184" r=".05"/><circle cx="7.965" cy="1.448" r=".05"/><circle cx="7.047" cy="5.049" r=".05"/><circle cx="4.34" cy=".895" r=".05"/><circle cx="7.125" cy=".34" r=".05"/><circle cx="9.553" cy="1.049" r=".05"/><circle cx="7.006" cy="2.689" r=".05"/><circle cx="8.909" cy="2.689" r=".05"/><circle cx="9.315" cy="4.407" r=".05"/><circle cx="7.82" cy="3.87" r=".05"/><circle cx="8.27" cy="5.948" r=".05"/><circle cx="7.973" cy="7.428" r=".05"/><circle cx="9.342" cy="8.072" r=".05"/><circle cx="8.206" cy="9.315" r=".05"/><circle cx="9.682" cy="9.475" r=".05"/><circle cx="9.688" cy="6.186" r=".05"/><circle cx="3.379" cy="6.296" r=".05"/><circle cx="2.871" cy="8.204" r=".05"/><circle cx="4.59" cy="8.719" r=".05"/><circle cx="3.181" cy="9.671" r=".05"/><circle cx="5.734" cy="7.315" r=".05"/><circle cx="6.707" cy="6.513" r=".05"/><circle cx="5.73" cy="9.67" r=".05"/><circle cx="6.535" cy="8.373" r=".05"/><circle cx="4.37" cy="7.154" r=".05"/><circle cx=".622" cy="7.25" r=".05"/><circle cx=".831" cy="5.679" r=".05"/><circle cx="1.257" cy="8.519" r=".05"/><circle cx="1.989" cy="6.877" r=".05"/><circle cx=".374" cy="3.181" r=".05"/><circle cx="1.166" cy="1.664" r=".05"/><circle cx="1.151" cy=".093" r=".05"/><circle cx="1.151" cy="10.093" r=".05"/><circle cx="1.302" cy="4.451" r=".05"/><circle cx="3.047" cy="3.763" r=".05"/></pattern><pattern id="Wavy" width="30.066020" height="5.1805778" patternUnits="userSpaceOnUse"><path d="m7.597 0.061c-2.518-0.248-4.941 0.241-7.607 1.727v1.273c2.783-1.63 5.183-2.009 7.482-1.781 2.298 0.228 4.497 1.081 6.781 1.938 4.567 1.713 9.551 3.458 15.813-0.157l-4e-3 -1.273c-6.44 3.709-10.816 1.982-15.371 0.273-2.278-0.854-4.576-1.75-7.094-2z"/></pattern><linearGradient id="linearGradient843"><stop stop-color="#ece26c" offset="0"/><stop stop-color="#fff" offset="1"/></linearGradient><linearGradient id="linearGradient847" x1="20.448" x2="146.25" y1="98.952" y2="98.952" gradientTransform="matrix(.68356 -.19011 .18224 .65527 10.46 52.498)" gradientUnits="userSpaceOnUse" xlink:href="#linearGradient843"/></defs><metadata><rdf:RDF><cc:Work rdf:about=""><dc:format>image/svg+xml</dc:format><dc:type rdf:resource="http://purl.org/dc/dcmitype/StillImage"/><dc:title/></cc:Work></rdf:RDF></metadata><g transform="translate(-9.043 -28.907)"><g stroke-linecap="round"><circle cx="102.37" cy="122.23" r="90.29" fill="#4be7c0" stroke="#000" stroke-width="6.068"/><circle cx="102.37" cy="122.23" r="90.29" fill="url(#Polkadots-small)" stroke="#000" stroke-width="6.068"/><rect x="71.455" y="96.685" width="94.364" height="66.508" fill="#ff652a" stroke="#fff" stroke-width=".84195"/></g><g stroke="#000"><rect x="71.455" y="96.685" width="94.364" height="66.508" fill="url(#Wavy)" stroke-linecap="round" stroke-width="4.379"/><path d="m42.764 96.025s23.341-21.695 40.106-14.163c16.765 7.5316 24.691 35.682 24.691 35.682l-13.61 4.4791 29.092 21.001 12.047-33.705-13.973 3.7176s-15.557-80.724-83.91-30.452z" fill="url(#linearGradient847)" stroke-width="3.215"/><path d="m42.764 96.025s23.341-21.695 40.106-14.163c16.765 7.5316 24.691 35.682 24.691 35.682l-13.61 4.4791 29.092 21.001 12.047-33.705-13.973 3.7176s-15.557-80.724-83.91-30.452z" fill="url(#linearGradient847)" stroke-width="3.215"/></g></g></svg>
