<?xml version="1.0" encoding="UTF-8" standalone="no"?>
<svg
   width="470mm"
   height="186.64999mm"
   version="1.1"
   viewBox="0 0 470.00002 186.65"
   id="svg49"
   sodipodi:docname="logo.svg"
   inkscape:version="1.3 (0e150ed6c4, 2023-07-21)"
   xmlns:inkscape="http://www.inkscape.org/namespaces/inkscape"
   xmlns:sodipodi="http://sodipodi.sourceforge.net/DTD/sodipodi-0.dtd"
   xmlns:xlink="http://www.w3.org/1999/xlink"
   xmlns="http://www.w3.org/2000/svg"
   xmlns:svg="http://www.w3.org/2000/svg"
   xmlns:rdf="http://www.w3.org/1999/02/22-rdf-syntax-ns#"
   xmlns:cc="http://creativecommons.org/ns#"
   xmlns:dc="http://purl.org/dc/elements/1.1/">
  <sodipodi:namedview
     id="namedview49"
     pagecolor="#ffffff"
     bordercolor="#cccccc"
     borderopacity="1"
     inkscape:showpageshadow="0"
     inkscape:pageopacity="1"
     inkscape:pagecheckerboard="0"
     inkscape:deskcolor="#d1d1d1"
     inkscape:document-units="mm"
     inkscape:zoom="0.93268691"
     inkscape:cx="886.14945"
     inkscape:cy="333.98131"
     inkscape:window-width="3840"
     inkscape:window-height="2107"
     inkscape:window-x="0"
     inkscape:window-y="31"
     inkscape:window-maximized="1"
     inkscape:current-layer="svg49" />
  <defs
     id="defs45">
    <pattern
       id="Polkadots-small"
       width="10"
       height="10"
       patternTransform="translate(0) scale(10)"
       patternUnits="userSpaceOnUse">
      <circle
         cx="2.567"
         cy=".81"
         r=".05"
         id="circle1" />
      <circle
         cx="3.048"
         cy="2.33"
         r=".05"
         id="circle2" />
      <circle
         cx="4.418"
         cy="2.415"
         r=".05"
         id="circle3" />
      <circle
         cx="1.844"
         cy="3.029"
         r=".05"
         id="circle4" />
      <circle
         cx="6.08"
         cy="1.363"
         r=".05"
         id="circle5" />
      <circle
         cx="5.819"
         cy="4.413"
         r=".05"
         id="circle6" />
      <circle
         cx="4.305"
         cy="4.048"
         r=".05"
         id="circle7" />
      <circle
         cx="5.541"
         cy="3.045"
         r=".05"
         id="circle8" />
      <circle
         cx="4.785"
         cy="5.527"
         r=".05"
         id="circle9" />
      <circle
         cx="2.667"
         cy="5.184"
         r=".05"
         id="circle10" />
      <circle
         cx="7.965"
         cy="1.448"
         r=".05"
         id="circle11" />
      <circle
         cx="7.047"
         cy="5.049"
         r=".05"
         id="circle12" />
      <circle
         cx="4.34"
         cy=".895"
         r=".05"
         id="circle13" />
      <circle
         cx="7.125"
         cy=".34"
         r=".05"
         id="circle14" />
      <circle
         cx="9.553"
         cy="1.049"
         r=".05"
         id="circle15" />
      <circle
         cx="7.006"
         cy="2.689"
         r=".05"
         id="circle16" />
      <circle
         cx="8.909"
         cy="2.689"
         r=".05"
         id="circle17" />
      <circle
         cx="9.315"
         cy="4.407"
         r=".05"
         id="circle18" />
      <circle
         cx="7.82"
         cy="3.87"
         r=".05"
         id="circle19" />
      <circle
         cx="8.27"
         cy="5.948"
         r=".05"
         id="circle20" />
      <circle
         cx="7.973"
         cy="7.428"
         r=".05"
         id="circle21" />
      <circle
         cx="9.342"
         cy="8.072"
         r=".05"
         id="circle22" />
      <circle
         cx="8.206"
         cy="9.315"
         r=".05"
         id="circle23" />
      <circle
         cx="9.682"
         cy="9.475"
         r=".05"
         id="circle24" />
      <circle
         cx="9.688"
         cy="6.186"
         r=".05"
         id="circle25" />
      <circle
         cx="3.379"
         cy="6.296"
         r=".05"
         id="circle26" />
      <circle
         cx="2.871"
         cy="8.204"
         r=".05"
         id="circle27" />
      <circle
         cx="4.59"
         cy="8.719"
         r=".05"
         id="circle28" />
      <circle
         cx="3.181"
         cy="9.671"
         r=".05"
         id="circle29" />
      <circle
         cx="5.734"
         cy="7.315"
         r=".05"
         id="circle30" />
      <circle
         cx="6.707"
         cy="6.513"
         r=".05"
         id="circle31" />
      <circle
         cx="5.73"
         cy="9.67"
         r=".05"
         id="circle32" />
      <circle
         cx="6.535"
         cy="8.373"
         r=".05"
         id="circle33" />
      <circle
         cx="4.37"
         cy="7.154"
         r=".05"
         id="circle34" />
      <circle
         cx=".622"
         cy="7.25"
         r=".05"
         id="circle35" />
      <circle
         cx=".831"
         cy="5.679"
         r=".05"
         id="circle36" />
      <circle
         cx="1.257"
         cy="8.519"
         r=".05"
         id="circle37" />
      <circle
         cx="1.989"
         cy="6.877"
         r=".05"
         id="circle38" />
      <circle
         cx=".374"
         cy="3.181"
         r=".05"
         id="circle39" />
      <circle
         cx="1.166"
         cy="1.664"
         r=".05"
         id="circle40" />
      <circle
         cx="1.151"
         cy=".093"
         r=".05"
         id="circle41" />
      <circle
         cx="1.151"
         cy="10.093"
         r=".05"
         id="circle42" />
      <circle
         cx="1.302"
         cy="4.451"
         r=".05"
         id="circle43" />
      <circle
         cx="3.047"
         cy="3.763"
         r=".05"
         id="circle44" />
    </pattern>
    <pattern
       id="Wavy"
       width="30.066020"
       height="5.1805778"
       patternUnits="userSpaceOnUse">
      <path
         d="m7.597 0.061c-2.518-0.248-4.941 0.241-7.607 1.727v1.273c2.783-1.63 5.183-2.009 7.482-1.781 2.298 0.228 4.497 1.081 6.781 1.938 4.567 1.713 9.551 3.458 15.813-0.157l-4e-3 -1.273c-6.44 3.709-10.816 1.982-15.371 0.273-2.278-0.854-4.576-1.75-7.094-2z"
         id="path44" />
    </pattern>
    <linearGradient
       id="linearGradient843">
      <stop
         stop-color="#ece26c"
         offset="0"
         id="stop44" />
      <stop
         stop-color="#fff"
         offset="1"
         id="stop45" />
    </linearGradient>
    <linearGradient
       id="linearGradient847"
       x1="20.448"
       x2="146.25"
       y1="98.952003"
       y2="98.952003"
       gradientTransform="matrix(0.68356,-0.19011,0.18224,0.65527,10.46,52.498)"
       gradientUnits="userSpaceOnUse"
       xlink:href="#linearGradient843" />
    <linearGradient
       inkscape:collect="always"
       xlink:href="#linearGradient843"
       id="linearGradient49"
       gradientUnits="userSpaceOnUse"
       gradientTransform="matrix(0.68356,-0.19011,0.18224,0.65527,10.46,52.498)"
       x1="20.448"
       y1="98.952003"
       x2="146.25"
       y2="98.952003" />
  </defs>
  <metadata
     id="metadata45">
    <rdf:RDF>
      <cc:Work
         rdf:about="">
        <dc:format>image/svg+xml</dc:format>
        <dc:type
           rdf:resource="http://purl.org/dc/dcmitype/StillImage" />
      </cc:Work>
    </rdf:RDF>
  </metadata>
  <g
     transform="matrix(0.83410663,0,0,0.83410663,267.91851,-6.7576495)"
     id="g49">
    <g
       stroke-linecap="round"
       id="g46">
      <circle
         cx="102.37"
         cy="122.23"
         r="90.290001"
         fill="#4be7c0"
         stroke="#000000"
         stroke-width="6.068"
         id="circle45" />
      <circle
         cx="102.37"
         cy="122.23"
         r="90.290001"
         fill="url(#Polkadots-small)"
         stroke="#000000"
         stroke-width="6.068"
         id="circle46" />
      <rect
         x="71.455002"
         y="96.684998"
         width="94.363998"
         height="66.508003"
         fill="#ff652a"
         stroke="#ffffff"
         stroke-width="0.84195"
         id="rect46" />
    </g>
    <g
       stroke="#000000"
       id="g48">
      <rect
         x="71.455002"
         y="96.684998"
         width="94.363998"
         height="66.508003"
         fill="url(#Wavy)"
         stroke-linecap="round"
         stroke-width="4.379"
         id="rect47" />
      <path
         d="m 42.764,96.025 c 0,0 23.341,-21.695 40.106,-14.163 16.765,7.5316 24.691,35.682 24.691,35.682 l -13.61,4.4791 29.092,21.001 12.047,-33.705 -13.973,3.7176 c 0,0 -15.557,-80.724 -83.91,-30.452 z"
         fill="url(#linearGradient847)"
         stroke-width="3.215"
         id="path47"
         style="fill:url(#linearGradient49)" />
      <path
         d="m 42.764,96.025 c 0,0 23.341,-21.695 40.106,-14.163 16.765,7.5316 24.691,35.682 24.691,35.682 l -13.61,4.4791 29.092,21.001 12.047,-33.705 -13.973,3.7176 c 0,0 -15.557,-80.724 -83.91,-30.452 z"
         fill="url(#linearGradient847)"
         stroke-width="3.215"
         id="path48"
         style="fill:url(#linearGradient847)" />
    </g>
  </g>
  <text
     xml:space="preserve"
     style="font-size:245.589px;line-height:1.25;font-family:'Go Mono';-inkscape-font-specification:'Go Mono, Normal';letter-spacing:0px;word-spacing:0px;stroke-width:2.87799"
     x="-2.179296"
     y="168.87587"
     id="text49"
     transform="scale(0.9888821,1.0112429)"><tspan
       sodipodi:role="line"
       id="tspan49"
       x="-2.179296"
       y="168.87587"
       style="font-style:normal;font-variant:normal;font-weight:normal;font-stretch:normal;font-size:245.589px;font-family:'Spleen 32x64';-inkscape-font-specification:'Spleen 32x64';stroke-width:2.87799">in</tspan></text>
</svg>
